<svg xmlns="http://www.w3.org/2000/svg" viewBox="0 0 100 100">
  <defs>
    <linearGradient id="breadLight" x1="0%" y1="0%" x2="0%" y2="100%">
      <stop offset="0%" style="stop-color:#FFD166;stop-opacity:1" />
      <stop offset="100%" style="stop-color:#F4A261;stop-opacity:1" />
    </linearGradient>
    <linearGradient id="crust" x1="0%" y1="0%" x2="0%" y2="100%">
      <stop offset="0%" style="stop-color:#E76F51;stop-opacity:1" />
      <stop offset="100%" style="stop-color:#D95D39;stop-opacity:1" />
    </linearGradient>
  </defs>
  
  <rect width="100" height="100" rx="20" fill="#2A9D8F" />
  
  <g transform="translate(15, 15) scale(0.7)">
    <path d="M 20 50 C 20 20, 40 20, 50 30 C 60 20, 80 20, 80 50 L 75 80 C 75 90, 65 95, 50 95 C 35 95, 25 90, 25 80 Z" fill="url(#crust)"/>
    <path d="M 25 52 C 25 25, 42 25, 50 34 C 58 25, 75 25, 75 52 L 70 78 C 70 86, 62 90, 50 90 C 38 90, 30 86, 30 78 Z" fill="url(#breadLight)"/>
    <!-- Cute face -->
    <circle cx="40" cy="65" r="4" fill="#6B4E3D" />
    <circle cx="60" cy="65" r="4" fill="#6B4E3D" />
    <path d="M 45 72 Q 50 78 55 72" stroke="#6B4E3D" stroke-width="3" stroke-linecap="round" fill="none" />
    <circle cx="33" cy="70" r="3" fill="#EEB79E" opacity="0.8" />
    <circle cx="67" cy="70" r="3" fill="#EEB79E" opacity="0.8" />
  </g>
  
  <path d="M 60 20 C 65 15, 75 10, 85 20 C 95 30, 90 40, 85 45 L 80 40 C 85 35, 85 30, 80 25 C 75 20, 70 20, 65 25 Z" fill="#E9C46A" opacity="0.7">
    <animateTransform attributeName="transform" type="translate" values="0,0; 2,-2; 0,0" dur="2s" repeatCount="indefinite" />
  </path>
</svg>
